<svg id="vscode-gpu-icon" width="128" height="128" viewBox="0 0 128 128" fill="none" xmlns="http://www.w3.org/2000/svg"><rect width="128" height="128" rx="16" fill="#1E1E1E"/><rect x="8" y="8" width="112" height="112" rx="8" fill="#252526"/><rect x="8" y="8" width="112" height="16" rx="8" fill="#323233"/><rect x="8" y="16" width="112" height="8" fill="#323233"/><circle cx="18" cy="16" r="3" fill="#FF5F56"/><circle cx="28" cy="16" r="3" fill="#FFBD2E"/><circle cx="38" cy="16" r="3" fill="#27C93F"/><rect x="12" y="28" width="4" height="88" rx="2" fill="#007ACC"/><text x="24" y="42" fill="#CCCCCC" font-size="10" font-family="Arial, sans-serif">GPU</text><rect x="24" y="48" width="88" height="8" rx="4" fill="#3C3C3C"/><rect x="24" y="48" width="75" height="8" rx="4" fill="#4EC9B0"/><text x="24" y="64" fill="#858585" font-size="8" font-family="monospace">GPU 0: 85%</text><rect x="24" y="72" width="88" height="8" rx="4" fill="#3C3C3C"/><rect x="24" y="72" width="55" height="8" rx="4" fill="#569CD6"/><text x="24" y="88" fill="#858585" font-size="8" font-family="monospace">GPU 1: 62%</text><rect x="24" y="96" width="88" height="8" rx="4" fill="#3C3C3C"/><rect x="24" y="96" width="25" height="8" rx="4" fill="#608B4E"/><text x="24" y="112" fill="#858585" font-size="8" font-family="monospace">GPU 2: 28%</text></svg>